# xmcd
#
# Track frame offsets:
#	150
#	23725
#	48172
#	58720
#	78115
#	97960
#	125330
#	151647
#	164905
#	186252
#	216440
#
# Disc length: 3208 seconds
#
# Revision: 1
# Processed by: cddbd v1.5PL3 Copyright (c) Steve Scherf et al.
# Submitted via: dBpowerAMP V4.0
#
DISCID=890c860b
DTITLE=Smart Metal Hornets - Hornets Dialogue
DYEAR=2000
DGENRE=Jazz
TTITLE0=Christoph allein zu Haus
TTITLE1=Spanish Hornets
TTITLE2=Vokal Fuge
TTITLE3=Hornets Dialogue
TTITLE4=Styrian Hornets
TTITLE5=Five Hot Dogs
TTITLE6=Dizzy Nights Part 1
TTITLE7=Dizzy Nights Part 2
TTITLE8=Dizzy Nights Part 3
TTITLE9=Unsquare Blues
TTITLE10=50 Ways To Leave Your Lover
EXTD=Smart Metal Hornets are: Joe harpf, Christoph Wundrak, Klemens Pliem. All Styria/Austria/EU. Label: Extraplatte LC 8202. EX 432-2
EXTT0=
EXTT1=
EXTT2=
EXTT3=
EXTT4=
EXTT5=
EXTT6=
EXTT7=
EXTT8=
EXTT9=
EXTT10=
PLAYORDER=
